<svg width="25" height="28" viewBox="0 0 25 28" fill="none" xmlns="http://www.w3.org/2000/svg">
<path d="M21.7975 4.35961L20.9971 3.96241C20.3968 3.66326 19.8965 3.3651 19.4963 2.86685L17.9946 1.37508C16.7939 0.280514 15.0921 -0.117691 13.5903 0.379565C12.5898 0.677718 11.4892 0.677718 10.4887 0.379565C9.08696 -0.316794 7.48614 -0.0186405 6.38457 0.976872L4.58364 2.86785C4.08339 3.26505 3.58313 3.66326 3.08287 3.96241L2.28146 4.35961C0.880737 5.05697 0.0803251 6.64879 0.280428 8.24161L1.381 13.9135C1.48105 14.5098 1.9813 14.9081 2.58161 14.9081C8.50366 14.9081 15.007 15.0081 21.4974 15.0081C22.0977 15.0081 22.4979 14.6099 22.5979 14.0126L23.6985 8.33967C23.9986 6.64879 23.1982 5.05697 21.7975 4.35961Z" fill="#212121"/>
<path d="M21.6333 13.0543C21.5582 13.9788 21.4982 15.0093 21.4982 15.0093C22.0985 15.0093 22.4987 14.6111 22.5988 14.0138L22.6968 13.5076C23.3138 13.9266 23.7526 14.5603 23.9279 15.2852C24.1031 16.0101 24.0022 16.7743 23.6448 17.4289C23.2874 18.0835 22.6992 18.5815 21.9946 18.8261C21.2901 19.0707 20.5197 19.0442 19.8336 18.7518C19.1476 18.4594 18.5949 17.9221 18.2833 17.2445C17.9717 16.5669 17.9236 15.7976 18.1482 15.0865C18.3728 14.3753 18.8542 13.7733 19.4984 13.3976C20.1427 13.0219 20.9037 12.8996 21.6333 13.0543ZM1.3038 13.5156L1.38185 13.9138C1.4819 14.5111 1.98215 14.9093 2.58246 14.9093C2.58246 14.9093 2.52343 13.9708 2.4504 13.0393C3.17982 12.9031 3.93387 13.0418 4.56699 13.4288C5.20012 13.8159 5.66745 14.4237 5.87879 15.135C6.09013 15.8463 6.03049 16.6107 5.71138 17.2806C5.39228 17.9505 4.83633 18.4785 4.15084 18.7626C3.46534 19.0468 2.6989 19.0669 1.99944 18.8192C1.29997 18.5714 0.717067 18.0734 0.363228 17.4211C0.00938935 16.7689 -0.0903011 16.0087 0.0833971 15.2872C0.257095 14.5658 0.691869 13.9343 1.3038 13.5146V13.5156Z" fill="#F4C6AD"/>
<path d="M2.48406 14.9055C2.51407 14.9075 2.54409 14.9085 2.5751 14.9085C2.5751 14.9085 2.47505 13.3167 2.375 12.2221C2.375 11.7239 2.5751 11.1276 2.97531 10.8284L3.27546 10.5303C3.77572 10.132 3.97582 9.53474 3.97582 8.93843V7.34561C3.97582 6.84835 4.27598 6.45015 4.77624 6.3511C5.97786 6.05194 8.48014 5.55469 12.083 5.55469C15.6849 5.55469 18.1881 6.05194 19.3888 6.3511C19.789 6.45015 20.1892 6.84835 20.1892 7.34561V8.93843C20.1892 9.53474 20.4893 10.132 20.8895 10.5292L21.0896 10.9285C21.4898 11.3257 21.69 11.8239 21.69 12.3212C21.5899 13.3167 21.4898 15.0076 21.4898 15.0076H21.5239L21.0286 22.3934C20.7285 25.6951 18.1331 27.9962 15.0385 27.9962H9.04744C5.85279 27.9962 3.35651 25.6951 3.05735 22.3934L2.48406 14.9055Z" fill="#FFD7C2"/>
<path d="M11.2857 15.5153L10.2952 18.6869C10.2483 18.8382 10.2377 18.9985 10.2644 19.1547C10.2911 19.3108 10.3543 19.4585 10.449 19.5856C10.5436 19.7127 10.6669 19.8156 10.8088 19.886C10.9507 19.9564 11.1073 19.9922 11.2657 19.9906H12.7325C13.4208 19.9906 13.9061 19.3283 13.703 18.6859L12.7125 15.5143C12.4994 14.8129 11.5089 14.8129 11.2857 15.5143V15.5153Z" fill="#E5AF93"/>
<path d="M12.0093 21.8876C11.1113 21.8934 10.225 21.6834 9.42501 21.2753C9.16987 21.1452 8.89473 21.4334 9.05582 21.6655C9.37915 22.1523 9.81823 22.5513 10.3337 22.8267C10.8492 23.102 11.4249 23.2452 12.0093 23.2433C12.5938 23.2452 13.1695 23.102 13.685 22.8267C14.2004 22.5513 14.6395 22.1523 14.9629 21.6655C15.1229 21.4244 14.8488 21.1452 14.5937 21.2753C13.7941 21.6845 12.9075 21.8946 12.0093 21.8876Z" fill="#990838"/>
<path d="M5.01452 15.3582C5.15912 14.7839 5.49483 14.2759 5.96646 13.9178C6.43808 13.5596 7.01754 13.3726 7.60954 13.3875C8.20155 13.4024 8.77087 13.6184 9.22387 13.9998C9.67688 14.3812 9.98661 14.9054 10.1021 15.4862C10.1135 15.5483 10.111 15.6121 10.0948 15.6731C10.0786 15.7341 10.0492 15.7907 10.0085 15.839C9.96791 15.8873 9.91712 15.926 9.85979 15.9524C9.80246 15.9787 9.74001 15.9921 9.67692 15.9915H5.51778C5.43974 15.9923 5.36255 15.9753 5.29208 15.9418C5.22162 15.9082 5.15975 15.859 5.1112 15.7979C5.06265 15.7368 5.0287 15.6655 5.01195 15.5892C4.99519 15.513 4.99607 15.434 5.01452 15.3582ZM18.9917 15.3582C18.8477 14.7965 18.5213 14.2985 18.0637 13.9423C17.6061 13.5861 17.0433 13.3919 16.4634 13.3901C15.8599 13.3887 15.2747 13.5971 14.808 13.9797C14.3413 14.3622 14.0221 14.8952 13.9051 15.4872C13.8939 15.5491 13.8965 15.6128 13.9127 15.6735C13.9289 15.7343 13.9583 15.7908 13.9988 15.8389C14.0393 15.8871 14.0899 15.9257 14.1471 15.9521C14.2042 15.9784 14.2664 15.9919 14.3293 15.9915H18.4885C18.5665 15.9923 18.6437 15.9753 18.7142 15.9418C18.7846 15.9082 18.8465 15.859 18.895 15.7979C18.9436 15.7368 18.9775 15.6655 18.9943 15.5892C19.011 15.513 19.0102 15.434 18.9917 15.3582Z" fill="white"/>
<path d="M6.25881 15.5467C6.25884 15.3092 6.30968 15.0745 6.40793 14.8582C6.50618 14.642 6.64955 14.4493 6.82843 14.2931C7.0073 14.1368 7.21754 14.0207 7.44502 13.9524C7.6725 13.8841 7.91195 13.8653 8.14731 13.8972C8.38266 13.9291 8.60847 14.011 8.80956 14.1373C9.01065 14.2637 9.18237 14.4317 9.3132 14.6299C9.44402 14.8281 9.53092 15.052 9.56805 15.2866C9.60519 15.5212 9.5917 15.761 9.5285 15.99H6.31784C6.27788 15.8456 6.25869 15.6965 6.25881 15.5467ZM17.7467 15.5467C17.7467 14.6203 16.9963 13.8809 16.0779 13.8809C15.8591 13.8797 15.6422 13.922 15.4399 14.0054C15.2375 14.0887 15.0538 14.2115 14.8994 14.3665C14.7449 14.5215 14.6228 14.7057 14.5402 14.9083C14.4576 15.1109 14.416 15.3279 14.418 15.5467C14.418 15.7038 14.438 15.8519 14.478 15.99H17.6877C17.7277 15.8419 17.7477 15.7038 17.7477 15.5467H17.7467Z" fill="#7D4533"/>
<path d="M7.92553 14.5996C8.08901 14.5992 8.24981 14.6411 8.39232 14.7212C8.53482 14.8013 8.65417 14.9169 8.73877 15.0568C8.82337 15.1967 8.87033 15.3561 8.8751 15.5195C8.87986 15.6829 8.84227 15.8447 8.76596 15.9893H7.0861C7.0098 15.8447 6.9722 15.6829 6.97697 15.5195C6.98173 15.3561 7.02869 15.1967 7.11329 15.0568C7.19789 14.9169 7.31724 14.8013 7.45974 14.7212C7.60225 14.6411 7.76305 14.5992 7.92653 14.5996H7.92553ZM16.0657 14.5996C15.9022 14.5992 15.7414 14.6411 15.5989 14.7212C15.4564 14.8013 15.3371 14.9169 15.2525 15.0568C15.1679 15.1967 15.1209 15.3561 15.1162 15.5195C15.1114 15.6829 15.149 15.8447 15.2253 15.9893H16.9052C16.9815 15.8447 17.0191 15.6829 17.0143 15.5195C17.0095 15.3561 16.9626 15.1967 16.878 15.0568C16.7934 14.9169 16.674 14.8013 16.5315 14.7212C16.389 14.6411 16.2292 14.5992 16.0657 14.5996Z" fill="black"/>
<path d="M7.65381 14.9076C7.65381 15.0737 7.52174 15.2077 7.35866 15.2077C7.3195 15.2075 7.28079 15.1995 7.24471 15.1843C7.20864 15.169 7.17592 15.1469 7.14842 15.119C7.12092 15.0911 7.09917 15.0581 7.08443 15.0218C7.06969 14.9856 7.06224 14.9467 7.06251 14.9076C7.06251 14.7415 7.19457 14.6074 7.35866 14.6074C7.52174 14.6074 7.65481 14.7415 7.65481 14.9076H7.65381ZM15.854 14.9076C15.854 15.0737 15.721 15.2077 15.5569 15.2077C15.5177 15.2075 15.479 15.1995 15.4429 15.1843C15.4069 15.169 15.3741 15.1469 15.3466 15.119C15.3191 15.0911 15.2974 15.0581 15.2827 15.0218C15.2679 14.9856 15.2605 14.9467 15.2607 14.9076C15.2607 14.7415 15.3938 14.6074 15.5569 14.6074C15.721 14.6074 15.854 14.7415 15.854 14.9076Z" fill="white"/>
<path d="M4.96399 10.9754L4.96499 10.9744L4.967 10.9724L4.97 10.9704L4.979 10.9634L5.00101 10.9454C5.01802 10.9314 5.04103 10.9154 5.06805 10.8954C5.38037 10.6746 5.71793 10.4919 6.07357 10.3511C6.9583 10.0042 7.9202 9.90225 8.858 10.056C9.11897 10.0971 9.35292 10.2402 9.50838 10.4538C9.66383 10.6674 9.72806 10.9341 9.68693 11.195C9.6458 11.456 9.50268 11.69 9.28906 11.8454C9.07544 12.0009 8.80882 12.0651 8.54784 12.024C7.96127 11.9256 7.359 11.9878 6.80494 12.2041C6.60763 12.2818 6.41969 12.3815 6.24465 12.5012L6.23065 12.5122C6.12974 12.5954 6.01344 12.6579 5.88839 12.6961C5.76333 12.7343 5.63197 12.7475 5.50181 12.735C5.23894 12.7097 4.99689 12.5809 4.82892 12.3772C4.74575 12.2763 4.68328 12.1599 4.64505 12.0349C4.60683 11.9098 4.59361 11.7785 4.60615 11.6483C4.63148 11.3854 4.7602 11.1434 4.96399 10.9754ZM18.9442 10.9744L18.9422 10.9724L18.9392 10.9704L18.9302 10.9634L18.9082 10.9454C18.815 10.8742 18.7185 10.8074 18.619 10.7453C18.3704 10.5904 18.1082 10.4584 17.8356 10.3511C16.9509 10.0042 15.989 9.9022 15.0512 10.056C14.922 10.0763 14.798 10.1219 14.6864 10.1902C14.5748 10.2585 14.4778 10.3481 14.4008 10.4538C14.3238 10.5596 14.2685 10.6795 14.2378 10.8067C14.2072 10.9339 14.2019 11.0658 14.2223 11.195C14.2426 11.3243 14.2882 11.4482 14.3565 11.5598C14.4248 11.6714 14.5144 11.7685 14.6201 11.8454C14.7259 11.9224 14.8458 11.9778 14.973 12.0084C15.1002 12.0391 15.2321 12.0443 15.3613 12.024C15.9479 11.9256 16.5502 11.9879 17.1042 12.2041C17.3015 12.2819 17.4895 12.3815 17.6645 12.5012L17.6785 12.5122C17.7795 12.5953 17.8959 12.6577 18.021 12.6959C18.146 12.734 18.2774 12.7471 18.4076 12.7345C18.5377 12.7219 18.6641 12.6837 18.7796 12.6222C18.895 12.5607 18.9972 12.4771 19.0803 12.3762C19.1634 12.2752 19.2258 12.1588 19.2639 12.0337C19.302 11.9087 19.3152 11.7773 19.3025 11.6471C19.2899 11.517 19.2518 11.3906 19.1903 11.2751C19.1288 11.1597 19.0452 11.0575 18.9442 10.9744Z" fill="#212121"/>
</svg>
