<svg width="227" height="181" viewBox="0 0 227 181" fill="none" xmlns="http://www.w3.org/2000/svg">
<path d="M226.048 200.369C231.017 152.568 216.415 104.788 185.428 67.4519C154.44 30.1153 109.581 6.25088 60.6346 1.06376C11.688 -4.12337 -37.3748 9.78764 -75.8528 39.7627C-114.331 69.7377 -139.102 113.345 -144.763 161.072C-150.424 208.8 -136.517 256.776 -106.073 294.537C-75.6299 332.297 -31.121 356.778 17.7456 362.64C66.6123 368.502 115.872 355.27 154.78 325.829C193.689 296.388 219.089 253.127 225.441 205.482L189.423 200.909C184.308 239.275 163.855 274.11 132.524 297.818C101.193 321.525 61.5268 332.181 22.1771 327.46C-17.1727 322.74 -53.0133 303.027 -77.5278 272.62C-102.042 242.213 -113.241 203.581 -108.683 165.148C-104.124 126.715 -84.177 91.601 -53.1928 67.4637C-22.2086 43.3264 17.2992 32.1246 56.7134 36.3015C96.1276 40.4784 132.25 59.6951 157.203 89.7604C182.155 119.826 193.913 158.3 189.912 196.792L226.048 200.369Z" fill="white"/>
</svg>
