<svg width="164" height="218" viewBox="0 0 164 218" fill="none" xmlns="http://www.w3.org/2000/svg">
<path d="M367 182C367 133.954 347.845 87.8562 313.712 53.7623C279.579 19.6684 233.239 0.344253 184.797 0.00454909C136.356 -0.335155 89.7446 18.3372 55.1293 51.949C20.5139 85.5607 0.703337 131.385 0.0183461 179.426C-0.666644 227.468 17.8296 273.829 51.4728 308.399C85.116 342.968 131.176 362.94 179.608 363.959C228.04 364.978 274.913 346.961 310.004 313.838C345.095 280.715 365.557 235.174 366.927 187.147L360.023 186.953C358.705 233.173 339.013 277 305.243 308.877C271.472 340.753 226.363 358.092 179.755 357.111C133.146 356.13 88.8187 336.91 56.4417 303.642C24.0646 270.373 6.26456 225.757 6.92377 179.523C7.58298 133.29 26.648 89.1903 59.9606 56.8435C93.2732 24.4967 138.13 6.52711 184.749 6.85403C231.367 7.18095 275.963 25.7779 308.811 58.5886C341.659 91.3994 360.094 135.762 360.094 182H367Z" fill="white"/>
</svg>
