<svg width="24" height="24" viewBox="0 0 24 24" fill="none" xmlns="http://www.w3.org/2000/svg">
<path d="M14.0388 20.4819C13.6934 20.8273 13.2653 21 12.7547 21C12.2441 21 11.816 20.8273 11.4706 20.4819L3.54068 12.5519C3.37547 12.3867 3.24391 12.1915 3.14599 11.9662C3.04807 11.7409 2.9994 11.5006 3.00001 11.2453V4.80225C3.00001 4.30663 3.17663 3.8825 3.52987 3.52986C3.88311 3.17722 4.30724 3.0006 4.80226 3H11.2453C11.5006 3 11.7409 3.04896 11.9662 3.14688C12.1915 3.24481 12.3867 3.37607 12.5519 3.54068L20.4819 11.4931C20.8273 11.8385 21 12.263 21 12.7664C21 13.2698 20.8273 13.694 20.4819 14.0388L14.0388 20.4819ZM7.05507 8.40676C7.43054 8.40676 7.74984 8.27549 8.01297 8.01297C8.2761 7.75044 8.40736 7.43114 8.40676 7.05507C8.40676 6.6796 8.2755 6.3606 8.01297 6.09807C7.75044 5.83554 7.43114 5.70398 7.05507 5.70338C6.6796 5.70338 6.36061 5.83494 6.09808 6.09807C5.83555 6.3612 5.70398 6.6802 5.70338 7.05507C5.70338 7.43054 5.83495 7.74984 6.09808 8.01297C6.36121 8.2761 6.6802 8.40736 7.05507 8.40676Z" fill="white"/>
</svg>
